PathFileType	4	(X/Y/Z)	2_coords_data.trc
DataRate	CameraRate	NumFrames	NumMarkers	Units	OrigDataRate	OrigDataStartFrame	OrigNumFrames
30.0	30.0	8	21	m	30.0	10	65
Frame#	Time	THUMB_TIP	THUMB_IP	THUMB_MCP	THUMB_CMC	INDEX_TIP	INDEX_DIP	INDEX_PIP	INDEX_MCP	MIDDLE_TIP	MIDDLE_DIP	MIDDLE_PIP	MIDDLE_MCP	RING_TIP	RING_DIP	RING_PIP	RING_MCP	PINKY_TIP	PINKY_DIP	PINKY_PIP	PINKY_MCP	WRIST
X1	Y1	Z1	X2	Y2	Z2	X3	Y3	Z3	X4	Y4	Z4	X5	Y5	Z5	X6	Y6	Z6	X7	Y7	Z7	X8	Y8	Z8	X9	Y9	Z9	X10	Y10	Z10	X11	Y11	Z11	X12	Y12	Z12	X13	Y13	Z13	X14	Y14	Z14	X15	Y15	Z15	X16	Y16	Z16	X17	Y17	Z17	X18	Y18	Z18	X19	Y19	Z19	X20	Y20	Z20	X21	Y21	Z21
8	0.2999999999999987	0.4723013265039022	-0.02514274136438499	-0.17516260965940572	0.4749141806801789	-0.028476660734894854	-0.15257814653352075	0.47382327756618114	-0.031766193483118266	-0.12164581870818192	0.4739664424595339	-0.030484436955696914	-0.0770562840165333	0.5619589298296876	0.02593819088159177	-0.17960557635547725	0.5533818877141626	0.016502605155950034	-0.16674462496910708	0.5398635460277605	0.006939865850433158	-0.1478285395383313	0.51606801629167	-0.006661598561178983	-0.11523392304360208	0.5935807410754554	0.04748015074008627	-0.13656391120729106	0.581381996879875	0.035266617115424004	-0.13108483861696707	0.5594277100423952	0.019799710929886305	-0.11976257504003907	0.5244003419039196	0.001965749970110897	-0.09852154778670419	0.6052164478602056	0.038278846556797363	-0.09788618025724893	0.5901778716214559	0.02880346205791018	-0.09487647706431457	0.5682081359238292	0.018045695340483947	-0.0902094493560327	0.532513802313951	0.0008394502517575786	-0.08217324925316105	0.5975506849592509	0.028087702792849667	-0.051790647959744085	0.583805390635661	0.018341727136237607	-0.05480442340901226	0.5655484181300579	0.008755262058684488	-0.05875343103707609	0.532661264377041	-0.004694323569829795	-0.06495239993897395	0.4622830810018609	-0.023011742144276925	-0.051989820119430985
9	0.33333333333333187	0.47239113185776527	-0.02545361617387476	-0.17514151708911263	0.4749972804792717	-0.02871984735726063	-0.1525463909947688	0.4738864077628313	-0.03193141363914587	-0.12160658162520521	0.4739999971836908	-0.03055380297800525	-0.07701982029059184	0.562150467868338	0.02565215081436556	-0.1795815978795955	0.5535435535531862	0.016255921133898954	-0.1667117923735455	0.5399606884949593	0.006758165388022985	-0.14780919346224025	0.516101240659218	-0.006787549262531001	-0.11523809496097215	0.5937379887984493	0.047155469384977944	-0.13664704357201496	0.5815182683304404	0.03498227899882145	-0.13112509939390948	0.5595132120843289	0.019617992418070163	-0.1197617483269916	0.5244139032920534	0.0019125377439059843	-0.09853197399739466	0.6052584987253055	0.038148051088067736	-0.09804890592420967	0.5902073625862023	0.028706513593602434	-0.09499592858024031	0.568219589665643	0.0180053297220526	-0.09028397731338689	0.532506434547082	0.0008805553110563524	-0.08215787819695308	0.5975871915257371	0.028136476905118446	-0.05190416727780267	0.5838156693573374	0.018413931266267336	-0.05487355837123131	0.5655511957424768	0.008824955519276423	-0.05878157151037011	0.5326531703296227	-0.004631549322155704	-0.06490740634226999	0.4622830810018609	-0.023011742144276925	-0.051989820119430985
10	0.3666666666666651	0.4724615228242368	-0.025798565437231025	-0.1751185952269409	0.4750733395253608	-0.02898875052372285	-0.15251326106365876	0.47394941120558154	-0.03211533340899231	-0.12156521969439688	0.4740354333214444	-0.030623529827309537	-0.07698207128303791	0.5623239784052863	0.02535225943629693	-0.17957521397493914	0.5536876319227556	0.015989517112420137	-0.16670072075732584	0.5400470697510902	0.006557199994316365	-0.14780690456195505	0.5161240536151875	-0.006910573166755696	-0.11525011603723645	0.5938929965475246	0.046809037666002085	-0.13675921295985732	0.5816385055133639	0.03469212197886806	-0.13119074784597157	0.5595719656462327	0.019430237520751792	-0.11980864562013377	0.5244111576059121	0.0018756214564761287	-0.09855538813363063	0.6052963066098096	0.038003902989931726	-0.09825719778626574	0.5902301166502533	0.028603754144753912	-0.095151216171531	0.5682285803633734	0.01795407692705364	-0.09038710500827019	0.5324904158846308	0.0009331693679235364	-0.08215344606744135	0.5976199339269522	0.0281979813895038	-0.052058634560144146	0.5838272007089116	0.018490050583495288	-0.05497695425505533	0.5655446557295575	0.008915022039406306	-0.05883433632814272	0.5326359950974769	-0.004549783836626631	-0.0648843370821347	0.4622830810018609	-0.023011742144276925	-0.051989820119430985
11	0.39999999999999825	0.47251070927334715	-0.026012451459000774	-0.1751038380459216	0.4751144428505688	-0.02916338584131095	-0.15249206712948904	0.4739835364278222	-0.03223979491619955	-0.12153925210618405	0.47405180954498916	-0.030675183696654118	-0.07695856872747009	0.5625644833047968	0.0250054536227865	-0.1795379703546507	0.5538886782176342	0.01568712067022915	-0.1666577887924658	0.5401723136835566	0.006322860674435549	-0.14778500914294196	0.51615648958205	-0.007052495513952817	-0.11525846408264939	0.5941609852314887	0.04629867107454477	-0.1368262476245643	0.5818598761891414	0.03424428544892588	-0.13122495281736557	0.5597065869995456	0.019130905605116433	-0.11981324489177969	0.5244428265635264	0.0017769913798971748	-0.09856573252033296	0.6054054330235441	0.037702807270031835	-0.0984358628497789	0.5903146221362838	0.02835697512610591	-0.0952858075641515	0.5682788229998366	0.017797634068752788	-0.09047916093134678	0.5325044298064121	0.0009018970277667737	-0.08214563253791596	0.5977036466247703	0.028100842147434135	-0.05219398080550319	0.5838926498560704	0.01840714597076254	-0.05507297762546359	0.5655793788751731	0.008869103072738915	-0.058875853202666306	0.5326447310250229	-0.004563322740890774	-0.06485601697533416	0.4622830810018609	-0.023011742144276925	-0.051989820119430985
12	0.43333333333333146	0.47261571022518567	-0.026270995535940034	-0.17509172515394422	0.4752033943463365	-0.0293571662989921	-0.15246918239433327	0.4740547110789639	-0.03236521236146084	-0.1215103034476187	0.4740825318125934	-0.030711833718406245	-0.07693278035503903	0.5627713141658401	0.024792790993311886	-0.17947406804614607	0.5540611128745847	0.015504876153440539	-0.16659513053588887	0.5402768943523668	0.006188528213721178	-0.14774809326745242	0.5161787220227061	-0.007129213768255371	-0.11525883453673524	0.5943109348752017	0.04600583577222772	-0.13689681335268944	0.5819703689533946	0.034005934847763264	-0.1312654005164139	0.5597561818602748	0.018993225623316956	-0.11983920239393692	0.5244471598044846	0.00175874650689134	-0.09856965580616928	0.6053901856568222	0.03767656298516542	-0.09863023373844226	0.5902982439590934	0.028349287706266435	-0.09543097887769803	0.5682646452431459	0.01781215779839085	-0.09056585812594309	0.5324848856747475	0.000978560009698204	-0.08213024168633787	0.5976921931584033	0.028257068012220943	-0.05232068125620826	0.5838745982932649	0.01856036473627698	-0.05515758409578431	0.5655604193391919	0.00900635554824003	-0.0589157454378636	0.5326286945545806	-0.004470836194878092	-0.06481068024919534	0.4622830810018609	-0.023011742144276925	-0.051989820119430985
13	0.4666666666666647	0.47269021285180424	-0.02646540210955617	-0.17507055507690727	0.47526155934034	-0.029514223731941014	-0.15244108614918445	0.4741037166517189	-0.03249338228643606	-0.12147975519239923	0.4741071757615464	-0.030763370349114694	-0.07690513184310677	0.5630378303536379	0.024478546321322403	-0.1794005625113364	0.5542835061043481	0.015227508890237829	-0.1665249998678256	0.5404229399444533	0.00597516906483464	-0.14770244035849123	0.516221051822424	-0.00725304420341677	-0.1152537257605532	0.5945677108530573	0.045512489589424	-0.1369635917127962	0.5821824730671932	0.03357479450562262	-0.131298141944791	0.5598822622769877	0.01870722934601743	-0.11984975101255535	0.5244893731743903	0.0016710395508657827	-0.09855985765362052	0.6055024595046075	0.03738107051865258	-0.09879277013777044	0.5903872187982857	0.028108139058869774	-0.09554588847498569	0.5683339464519575	0.017638165879506174	-0.090625236135907	0.5325148989577184	0.0009372703176191433	-0.08209313451693934	0.5977944010420451	0.028130447572538242	-0.0524206990679158	0.5839475456045715	0.01846286874078651	-0.055213997123185865	0.5656060991880654	0.00894588653472217	-0.058932923317651764	0.5326439551942737	-0.004489235308213102	-0.06475340572017108	0.4622830810018609	-0.023011742144276925	-0.051989820119430985
14	0.4999999999999978	0.47275608245759704	-0.026528292954375088	-0.1750621216329133	0.47530589202028417	-0.029572681597878625	-0.15242961914243874	0.4741240569501718	-0.03254630881035647	-0.12146866297070097	0.47411757101277663	-0.030778352434376877	-0.0768955288181058	0.5632740830339131	0.02426636542448468	-0.17931028970028007	0.5544712560882652	0.015039020660366886	-0.16645080501507276	0.5405377361691857	0.005829012540967793	-0.1476613769741446	0.5162424710547442	-0.007331586565387793	-0.11525497609128188	0.5947804419811142	0.04510331914274046	-0.13701894392123143	0.5823513086727597	0.03322144142519512	-0.13133232567235475	0.5599775564273142	0.018482755700327202	-0.1198607998992503	0.5245132182325762	0.001607508334654728	-0.09856162940468371	0.605583392500215	0.03713778519560085	-0.09895436216848852	0.5904454554323595	0.027913202474768917	-0.09567565282544299	0.5683745335731918	0.017503918751519576	-0.09070562267911475	0.532529258642329	0.0009048584019556438	-0.08208539677474258	0.5978695823223164	0.02803395988593982	-0.052570173635515194	0.5840101163986066	0.01837307423616874	-0.05532380628559319	0.5656417121060286	0.008890341473809071	-0.05899688702280481	0.532651400127735	-0.004508662040163536	-0.06474053319987838	0.4622830810018609	-0.023011742144276925	-0.051989820119430985
15	0.533333333333331	0.47286134101625077	-0.026629575782576298	-0.17505249044560622	0.47538331422873736	-0.029652622877810786	-0.1524140091057395	0.4741644363281978	-0.03260434458319317	-0.1214523929393061	0.47413709056659203	-0.030795431027837772	-0.07688091008357678	0.5634420444871753	0.024134177449546046	-0.1792434216094525	0.5546035806217208	0.014929237064925549	-0.16639232714187363	0.5406124184909593	0.005748294423785438	-0.1476315300519087	0.5162468463434065	-0.0073698174193204125	-0.11526070785669457	0.5948686607300983	0.0448893104097452	-0.13710270400602687	0.5824012398505183	0.03305391635522792	-0.13140297908409349	0.5599980692419404	0.018384306899486447	-0.11990036828919248	0.5245104917377841	0.0015954880384815295	-0.09857162418320098	0.6055543732877926	0.037122704719834476	-0.09914504462018847	0.5904118911257693	0.027919778552615737	-0.09582670408107419	0.5683453042295719	0.017522739173767343	-0.09081199632216663	0.5325157154391834	0.0009459935879049253	-0.08208428717868221	0.5978621649596503	0.028159295392995	-0.0527417912290562	0.583994462516648	0.018496674708032623	-0.05544745019701214	0.565626089030153	0.008996558481711436	-0.05907548908145299	0.5326383470364324	-0.004448604456587568	-0.06472526099882558	0.4622830810018609	-0.023011742144276925	-0.051989820119430985
